<svg xmlns="http://www.w3.org/2000/svg" viewBox="0 0 36.85 40.76"><defs><style>.cls-1{fill:#008457;}</style></defs><title>Asset 1</title><g id="Layer_2" data-name="Layer 2"><g id="Lager_1" data-name="Lager 1"><path class="cls-1" d="M20.05.12,4.9,12.08,4.78,12A17.35,17.35,0,0,1,20.14,0Z"/><path class="cls-1" d="M22,0C16.07,4.7,10.17,9.27,4.39,13.93A10.57,10.57,0,0,0,4.11,18l1.07-.79L26.12.73V.62A13.51,13.51,0,0,0,22,0Z"/><path class="cls-1" d="M27.56,1.06,4.12,19.64a10.47,10.47,0,0,0,.65,3.12h.1L29.77,3.11l.87-.66A8.15,8.15,0,0,0,27.56,1.06Z"/><path class="cls-1" d="M31.69,3.06,5.15,24a10.47,10.47,0,0,0,1.22,2.61L33.8,5.12l.27-.36A12.68,12.68,0,0,0,31.69,3.06Z"/><path class="cls-1" d="M34.85,5.73.86,32.41,0,33.17a10.87,10.87,0,0,0,1.79,2.11l.23.08L36.58,8.16l.27-.36A10.86,10.86,0,0,0,35.06,5.7Z"/><path class="cls-1" d="M30.27,14.4,3,35.75l-.38.37A9.45,9.45,0,0,0,5,37.83c8.89-6.91,17.69-13.71,26.47-20.71A6.89,6.89,0,0,0,30.27,14.4Z"/><path class="cls-1" d="M31.88,18.24,6.19,38.42v.11a9,9,0,0,0,3,1.2L32.54,21.47A8.63,8.63,0,0,0,31.88,18.24Z"/><path class="cls-1" d="M32.41,22.88c-7.34,5.73-14.68,11.46-21.92,17.19l.12.09a14.19,14.19,0,0,0,3.72.55l18-14.06A10.4,10.4,0,0,0,32.53,23Z"/><path class="cls-1" d="M31.69,28.44,16.25,40.66v.1A17.32,17.32,0,0,0,22.77,39,16.44,16.44,0,0,0,31.69,28.44Z"/></g></g></svg>