<?xml version="1.0" encoding="utf-8"?>
<!-- Generator: Adobe Illustrator 21.0.0, SVG Export Plug-In . SVG Version: 6.00 Build 0)  -->
<svg version="1.1" id="Lager_1" xmlns="http://www.w3.org/2000/svg" xmlns:xlink="http://www.w3.org/1999/xlink" x="0px" y="0px"
	 viewBox="0 0 383.9 111.4" style="enable-background:new 0 0 383.9 111.4;" xml:space="preserve">
<style type="text/css">
	.st0{fill:#3279BE;}
</style>
<g>
	<path class="st0" d="M121.5,18.5h-0.1L114,47.7c-1.3,5.1-1.3,6-0.3,8.1h-10.8c2-2.1,2.4-3,3.7-8.1l7.2-28.9c1.3-5.1,1.3-6,0.3-8.1
		h24.1l9.1,36.7h0.2l7.1-28.6c1.3-5.1,1.3-6,0.3-8.1h10.8c-2,2.1-2.4,3-3.7,8.1l-9.2,37h-22.2L121.5,18.5z"/>
	<path class="st0" d="M168.3,24c2.4-9.7,7.4-13.2,14.7-13.2h25.8c7.3,0,10.5,3.5,8.1,13.2l-4.6,18.6c-2.4,9.7-7.4,13.2-14.7,13.2
		h-25.8c-7.3,0-10.5-3.5-8.1-13.2L168.3,24z M180.1,45.5c-0.5,2.2,0.4,2.9,2.7,2.9h7.5c2.3,0,3.6-0.7,4.1-2.9l6.1-24.4
		c0.5-2.2-0.4-2.9-2.7-2.9h-7.5c-2.3,0-3.6,0.7-4.1,2.9L180.1,45.5z"/>
	<path class="st0" d="M238.6,36.2l-2.9,11.8c-1.1,4.3-0.9,6-0.5,7.7h-20c1.3-1.8,2.3-3.4,3.3-7.7l7.4-29.6c1.1-4.3,0.9-6,0.1-7.7h37
		c7.9,0,11.1,2.4,9.2,9.9l-2.1,8.3c-1.6,6.6-5,7-8.7,7.2l3,12.7c0.7,2.9,1,5.2,2,6.9h-19.2l-3.3-19.6H238.6z M240.4,28.8h9.7
		c2.2,0,2.9-0.4,3.4-2.5l1.4-5.5c0.5-2.2,0-2.5-2.2-2.5h-9.7L240.4,28.8z"/>
	<path class="st0" d="M293.6,36.2l-2.9,11.8c-1.1,4.3-0.9,6-0.5,7.7h-20c1.3-1.8,2.3-3.4,3.3-7.7l7.4-29.6c1.1-4.3,0.9-6,0.1-7.7h37
		c7.9,0,11.1,2.4,9.2,9.9l-2.1,8.3c-1.7,6.6-5,7-8.7,7.2l3,12.7c0.7,2.9,1,5.2,2,6.9h-19.2l-3.3-19.6H293.6z M295.5,28.8h9.7
		c2.2,0,2.9-0.4,3.4-2.5l1.4-5.5c0.5-2.2,0-2.5-2.2-2.5h-9.7L295.5,28.8z"/>
	<path class="st0" d="M339.7,43.7l-4.6,6.2c-0.6,0.8-1.1,1.8-1.3,2.7c-0.4,1.5-0.4,1.7,0.2,3.2h-12.7c3.5-3.4,4.7-4.7,7.2-8.2
		l25-34.3l-1.3-2.5h20.3l6.4,38.9c0.4,2.3,1.3,4.5,2.4,6.2h-22.6c1.3-1.7,1.5-2,1.7-3c0.3-1.1,0.4-2.4,0.2-3.4l-1-5.8H339.7z
		 M358.4,36.2L355.8,21l-10.7,15.2H358.4z"/>
</g>
<g>
	<path class="st0" d="M49.6,4.4L14.4,32.2L14.1,32c5.1-15.4,19.1-27,35.7-27.9L49.6,4.4z"/>
	<path class="st0" d="M54,4.2C40.3,15,26.6,25.6,13.2,36.5c-0.6,3.1-1.3,6.4-0.7,9.5l2.5-1.8L63.7,5.8l0-0.2
		C60.5,4.5,57.2,4.2,54,4.2z"/>
	<path class="st0" d="M67,6.6L12.6,49.7c0.1,2.5,0.7,5.1,1.5,7.3l0.2,0l57.8-45.6l2-1.5C71.9,8.1,69.6,7.2,67,6.6z"/>
	<path class="st0" d="M76.6,11.2L15,59.9c0.8,2.1,1.6,4.5,2.8,6.1L81.5,16l0.6-0.8C80.4,13.7,78.5,12.2,76.6,11.2z"/>
	<path class="st0" d="M83.9,17.4l-79,62l-2,1.8c1.2,1.8,2.5,3.4,4.2,4.9l0.5,0.2L88,23.1l0.6-0.8c-1.2-1.8-2.5-3.4-4.2-4.9
		L83.9,17.4z"/>
	<path class="st0" d="M73.3,37.6L10,87.2L9.2,88c1.7,1.7,3.6,3,5.5,4c20.7-16.1,41.1-31.8,61.5-48.1C75.6,41.7,74.8,39.3,73.3,37.6z
		"/>
	<path class="st0" d="M77,46.5L17.4,93.4l0,0.2c2.2,1.2,4.3,2.4,6.9,2.8L78.6,54C78.5,51.5,78.1,48.8,77,46.5z"/>
	<path class="st0" d="M78.3,57.3C61.2,70.6,44.2,83.9,27.4,97.2l0.3,0.2c2.9,0.8,5.6,1.2,8.6,1.3L78,66c0.6-2.8,1-5.6,0.6-8.5
		L78.3,57.3z"/>
	<path class="st0" d="M76.6,70.2L40.7,98.6l0,0.2c5.4-0.5,10.7-1.7,15.1-4.1C65.5,90.4,74.1,80.7,76.6,70.2z"/>
</g>
<g>
	<path class="st0" d="M122.7,71c-1-0.7-1.8-1.1-3.6-1.1h-8.9c-1.5,0-1.9,0.3-2.2,1.5l-0.5,1.9c-0.3,1.3,0,1.5,1.5,1.5h6.8
		c4.1,0,5.8,1.9,4.5,7l-2.1,8.4c-1.4,5.4-3.5,8.5-8.2,8.5H92.6l0.9-7c0.8,0.6,1.6,1.3,3.5,1.3h9.3c1.5,0,1.9-0.2,2.2-1.5l0.6-2.4
		c0.3-1.2,0.1-1.5-1.4-1.5h-7.8c-3.8,0-4.9-1.7-3.4-7.5l1.9-7.7c1.4-5.4,4-8.2,7.4-8.2h17.8L122.7,71z"/>
	<path class="st0" d="M131.5,88.6l-1.1,4.3c-0.9,3.5-0.7,4.5-0.4,5.8h-11.3c0.9-1.3,1.6-2.3,2.5-5.8l5.8-22.9
		c0.9-3.5,0.7-4.5,0.4-5.8h10.3l-4.5,18.1l5.7-4.9c2-1.8,2.5-2.8,3-4h8.4l0,0.1c-0.9,0.4-1.9,0.8-2.7,1.5l-5.1,4.3l2.5,14.2
		c0.5,2.6,0.5,3,1.3,5.2l-11.2,0l-1.3-11.8L131.5,88.6z"/>
	<path class="st0" d="M172.8,91c-1.3,5.3-3.1,7.7-7.3,7.7h-14.5c-4.2,0-4.8-2.4-3.4-7.7l2.5-10c1.3-5.3,3.1-7.7,7.3-7.7h14.5
		c4.2,0,4.8,2.4,3.4,7.7L172.8,91z M156.8,91.7c-0.4,1.5-0.2,2,0.8,2h3.9c1.1,0,1.6-0.6,1.9-2l2.9-11.3c0.4-1.5,0.2-2.1-0.9-2.1
		h-3.9c-1,0-1.5,0.6-1.9,2.1L156.8,91.7z"/>
	<path class="st0" d="M189.8,96.1L189.8,96.1c-0.6,1.1-1.4,2.5-3.1,2.5l-7.3,0c-4.3,0-5-3.2-3.8-7.9l2.4-9.6
		c1.2-4.6,3.6-7.9,7.8-7.9l7.3,0c1.8,0,2.3,0.8,2.2,2.7h0.1l1.2-2.7h9.3c-0.6,1-1.6,2.4-2.7,6.7l-4.7,18.6c-1.8,7.2-4.2,9.6-8.6,9.6
		l-17.1,0l1-6.4c1.3,0.9,2.1,1.4,3.9,1.4l8,0c2,0,2.5-0.7,3.3-3.8L189.8,96.1z M193.7,80.3c0.4-1.5,0.2-2.1-0.8-2.1h-3.6
		c-1,0-1.5,0.6-1.9,2.1l-2.9,11.3c-0.4,1.5-0.2,2,0.8,2l3.6,0c1,0,1.5-0.6,1.9-2L193.7,80.3z"/>
	<path class="st0" d="M224.1,80.9c4.3,0,4.2,3,3.5,6l-1.3,5.1c-0.8,3.2-3.1,6.7-7.2,6.7h-17.2l0.8-6.1c1.4,1.1,2.2,1.5,5.4,1.5h7.8
		c0.9,0,1.3-0.3,1.6-1.3l0.1-0.5c0.3-1,0.1-1.3-0.9-1.3h-8.1c-4.3,0-4.2-3-3.5-6.1l1.2-4.9c1-3.9,4-6.5,7.5-6.5h16l-0.8,6.3
		c-0.4-1.2-2.9-1.7-5.1-1.7h-7.2c-0.9,0-1.3,0.3-1.5,0.9l-0.3,1.1c-0.1,0.6,0.1,0.9,1,0.9H224.1z"/>
	<path class="st0" d="M250.1,80.9c4.3,0,4.2,3,3.5,6l-1.3,5.1c-0.8,3.2-3.1,6.7-7.2,6.7l-17.2,0l0.8-6.1c1.4,1.1,2.2,1.5,5.4,1.5
		l7.8,0c0.9,0,1.3-0.3,1.6-1.3l0.1-0.5c0.3-1,0.1-1.3-0.9-1.3l-8.1,0c-4.3,0-4.2-3-3.5-6.1l1.2-4.9c1-3.9,4-6.5,7.5-6.5h16l-0.8,6.3
		c-0.4-1.2-2.9-1.7-5.1-1.7h-7.2c-0.9,0-1.3,0.3-1.5,0.9l-0.3,1.1c-0.1,0.6,0.1,0.9,1,0.9H250.1z"/>
	<path class="st0" d="M265.8,88.6l-1.1,4.3c-0.9,3.5-0.7,4.5-0.4,5.8h-11.3c0.9-1.3,1.6-2.3,2.5-5.8l5.8-22.9
		c0.9-3.5,0.7-4.5,0.4-5.8h10.3l-4.5,18.1l5.7-4.9c2-1.8,2.5-2.8,3-4h8.4l0,0.1c-0.9,0.4-1.9,0.8-2.7,1.5l-5.1,4.3l2.5,14.2
		c0.5,2.6,0.5,3,1.3,5.2h-11.2l-1.3-11.8L265.8,88.6z"/>
	<path class="st0" d="M307.1,91c-1.3,5.3-3.1,7.7-7.3,7.7h-14.5c-4.2,0-4.8-2.4-3.4-7.7l2.5-10c1.3-5.3,3.1-7.7,7.3-7.7h14.5
		c4.2,0,4.8,2.4,3.4,7.7L307.1,91z M291.1,91.7c-0.4,1.5-0.2,2,0.8,2h3.9c1.1,0,1.6-0.6,1.9-2l2.9-11.3c0.4-1.5,0.2-2.1-0.9-2.1
		h-3.9c-1,0-1.5,0.6-1.9,2.1L291.1,91.7z"/>
	<path class="st0" d="M315.9,70c0.9-3.5,0.7-4.5,0.4-5.8h10.3l-7.2,28.7c-0.9,3.5-0.7,4.5-0.4,5.8h-11.3c0.9-1.3,1.6-2.3,2.5-5.8
		L315.9,70z"/>
	<path class="st0" d="M345.9,73.3c4.4,0,5.6,2.6,3.8,9.5l-2.8,11.1c-0.7,2.6-0.6,3.7-0.3,4.7h-9.3l0.2-2.8h-0.1
		c-1,2.3-2,2.8-4.5,2.8l-6.6,0c-4.2,0-4.8-2.4-3.4-7.7l0.5-1.8c1.3-5.3,3.1-7.7,7.3-7.7l8.5,0c1.3,0,1.7-0.4,2-1.6
		c0.3-1.1,0.1-1.6-1.2-1.6l-9.2,0c-1.7,0-2.7,0.3-4,1.1l2.2-6L345.9,73.3z M335.4,86.5c-1.4,0.1-2,0.3-2.5,2.2l-0.7,2.9
		c-0.5,1.8,0,2.1,1.4,2.2h2.2c1.8,0,2.1-0.4,2.9-3.6l0.9-3.6H335.4z"/>
	<path class="st0" d="M364.3,73.3l-0.4,2.6h0.1c0.8-1.3,1.7-2.6,3.1-2.6h7.5c4.4,0,5.3,3.6,3.9,9.2l-2.6,10.3
		c-0.9,3.5-0.7,4.5-0.4,5.8H364c0.9-1.3,1.6-2.3,2.5-5.8l3.1-12.5c0.4-1.6,0.1-2.1-1-2.1h-3.4c-1.1,0-1.7,0.5-2.1,2.1l-3.1,12.5
		c-0.9,3.5-0.7,4.5-0.4,5.8h-11.3c0.9-1.3,1.6-2.3,2.5-5.8l3.4-13.7c0.9-3.5,0.7-4.5,0.4-5.8H364.3z"/>
</g>
</svg>
