<?xml version="1.0" encoding="UTF-8" standalone="no"?><!DOCTYPE svg PUBLIC "-//W3C//DTD SVG 1.1//EN" "http://www.w3.org/Graphics/SVG/1.1/DTD/svg11.dtd"><svg width="100%" height="100%" viewBox="0 0 283 463" version="1.1" xmlns="http://www.w3.org/2000/svg" xmlns:xlink="http://www.w3.org/1999/xlink" xml:space="preserve" style="fill-rule:evenodd;clip-rule:evenodd;stroke-linejoin:round;stroke-miterlimit:1.41421;"><path id="lan_8" d="M136.733,403.354l-6.555,-15.177l-5.717,-4l-13.03,-31.716l-8.262,3.987l-25.198,-5.98l-16.654,-19.641l-6.788,-0.594l0.394,-5.683l-19.174,-12.509l-3.157,5.812l17.395,26.36l-0.902,13.901l1.184,10.582l-5.806,2.297l1.57,11.937l8.745,4.327l-0.266,7.081l19.537,14.662l34.548,49.654l23.248,-44.639l-5.081,-1.21l9.969,-9.451Z" style="fill:#dbd9cf;"/><path id="lan_7" d="M168.052,379.096l-3.383,-7.189l-0.572,-11.524l-6.74,-4.718l-5.17,-14.25l-6.829,-4.043l-11.765,5.855l-29.168,-29.512l-10.332,3.602l3.857,13.814l0.935,11.307l11.813,4.863l2.416,7.436l11.548,29.273l4.937,4.182l7.376,14.807l10.815,-3.631l4.34,-15.003l14.319,-0.355l1.603,-4.914Z" style="fill:#dbd9cf;"/><path id="lan_6" d="M193.572,356.839l-6.033,-18.859l-5.975,-4.443l-4.703,-11.879l-9.414,-7.008l-8.27,-9.698l-9.285,-2.71l-3.02,-6.248l-8.214,22.403l2.947,13.864l4.164,5.959l6.29,3.392l4.935,14.082l7.055,5.117l0.459,11.313l3.938,5.508l4.164,-8.436l11.008,-2.051l3.937,-7.726l6.017,-2.58Z" style="fill:#dbd9cf;"/><path id="lan_5" d="M215.577,311.319l-12.418,-13.133l-21.662,-3.522l-9.003,-7.277l-3.672,5.581l0.677,6.001l-3.463,1.043l-19.166,-3.304l3.64,5.537l7.391,2.869l10.212,10.612l8.874,7.103l5.38,11.812l4.251,2.61l7.844,18.293l4.67,-20.758l16.445,-23.467Z" style="fill:#dbd9cf;"/><path id="lan_4" d="M146.112,295.692l-32.776,-30.845l2.496,-17.685l-3.735,-4.667l-14.641,-6.552l-22.854,-23.975l-8.987,-1.392l-18.216,-14.799l-9.985,-3.161l-10.486,11.828l-15.816,1.522l2.061,22.004l-3.769,34.122l-3.993,3.422l-0.08,10.218l11.676,10.046l18.231,25.714l19.408,13.351l0.693,5.508l5.62,0.899l16.88,19.438l26.398,5.479l7.457,-3.551l-1.16,-6.016l-11.628,-4.551l-4.752,-24.889l9.696,-3.29l29.909,28.223l10.502,-4.885l-2.353,-5.277l-4.011,-14.988l8.215,-21.251Z" style="fill:#dbd9cf;"/><path id="lan_3" d="M206.015,272.276l-5.556,-9.017l-16.686,-1.101l-29.345,-13.206l2.562,-5.406l7.827,0.203l4.574,-3.117l-4.268,-17.191l0.886,-6.755l-7.2,-6.783l-15.252,-1.478l-17.669,-14.511l-1.706,-15.844l-27.317,-13.046l-15.961,-17.046l-22.5,-12.321l3.447,11.278l-26.799,34.847l2.383,11.48l10.824,2.508l18.344,15.321l8.616,2.493l22.645,23.758l15.22,5.451l3.173,3.521l-1.61,19.323l33.306,30.267l21.519,4.406l0.258,-6.393l2.737,-5.333l8.778,6.493l23.225,2.595l0.129,-8.958l-4.881,-1.494l6.297,-14.944Z" style="fill:#dbd9cf;"/><path id="lan_2" d="M233.639,217.411l-20.423,-36.977l-17.925,9.161l-10.243,-22.743l-35.127,-22.482l-30.409,-25.888l-39.041,-23.729l-7.392,-9.394l-4.591,4.262l-5.217,23.526l-7.555,2.015l-1.111,9.074l3.463,11.509l23.805,13.525l15.074,15.871l27.704,13.351l1.207,15.451l18.312,14.961l14.77,1.144l7.151,7.103l-1.112,6.754l4.462,17.714l-5.654,2.102l-6.555,-0.378l-1.997,6.017l28.975,12.291l16.234,1.915l6.346,7.145l6.314,-14.988l-4.976,-6.697l11.837,-4.03l9.406,-10.696l0.241,-14.568l4.027,-2.321Z" style="fill:#dbd9cf;"/><path id="lan_1" d="M74.337,87.164l6.643,8.114l40.281,24.027l31.093,27.561l32.769,20.115l11.345,22.838l16.325,-9.54l20.163,35.218l4.05,0.177l12.006,7.59l26.744,-8.834l-19.212,-41.581l5.829,-13.018l-6.581,-27.649l-9.386,-13.954l6.604,-3.597l-2.408,-9.103l-6.867,-2.067l-2.276,-24.211l4.019,-6.618l-15.394,-14.908l-16.453,-15.941l-15.37,-1.133l-14.422,-12.204l-19.105,-21.686l-13.803,1.69l4.108,19.938l-4.616,12.58l4.903,4.393l-6.978,9.024l-23.256,-8.566l-10.16,4.015l-3.622,-5.644l-8.9,5.823l2.917,19.598l-4.241,14.251l-14.93,-7.751l-11.819,11.053Z" style="fill:#dbd9cf;"/><g id="lines"><path d="M55.828,323.383l0.793,1.551l-0.046,4.325l4.327,0.111l1.336,0.611l17.276,18.927l24.548,4.955l7.326,-3.408l1.581,3.4l-7.884,3.667l-1.161,0.138l-25.752,-5.197l-1.014,-0.574l-17.151,-18.791l-5.375,-0.138l-1.827,-1.894l0.056,-5.188l-18.973,-13.403l2.164,-3.063c6.592,4.657 13.184,9.314 19.776,13.971Z" style="fill:#fff;fill-rule:nonzero;"/><path d="M105.431,312.256l29.026,28.462l9.869,-4.92l1.673,3.356l-11.065,5.516l-2.149,-0.339l-29.159,-28.592l-7.235,2.438l3.137,13.487l0.039,0.229l0.945,8.962l11.279,4.92l1.085,1.329l1.344,6.321l12.457,30.084l3.849,2.872l0.578,0.71l7.103,15.237l-3.399,1.585l-6.903,-14.809l-3.884,-2.899l-0.611,-0.785l-12.721,-30.719l-0.101,-0.328l-1.18,-5.546l-11.396,-4.971l-1.115,-1.522l-1.047,-9.933l-3.497,-15.032l1.227,-2.202l9.939,-3.349c0.637,0.146 1.274,0.292 1.912,0.438Z" style="fill:#fff;fill-rule:nonzero;"/><path d="M148.535,295.686l-8.077,23.207l2.619,12.265l3.391,4.971l6.428,3.854l0.791,0.95l5.158,13.761l6.167,4.459l0.775,1.446l0.426,10.897l3.25,6.515l-3.356,1.674l-3.43,-6.876l-0.195,-0.764l-0.407,-10.388l-5.886,-4.256l-0.657,-0.861l-5.126,-13.678l-6.219,-3.728l-0.584,-0.552l-3.832,-5.615l-0.285,-0.665l-2.805,-13.139l0.063,-1.007l8.25,-23.702c1.18,0.41 2.361,0.821 3.541,1.232Z" style="fill:#fff;fill-rule:nonzero;"/><path d="M151.814,300.741l7.532,2.551l0.755,0.481l10.237,10.721l7.675,6.122l0.548,0.712l5.1,11.611l4.626,3.441l0.643,0.862l6.66,18.26l-3.523,1.285l-6.468,-17.733l-4.574,-3.402l-0.598,-0.751l-5.114,-11.641l-7.413,-5.914l-0.187,-0.171l-10.006,-10.479l-7.812,-2.645l-1.063,-0.914l-3.732,-7.205l3.329,-1.725c1.128,2.178 2.257,4.356 3.385,6.534Z" style="fill:#fff;fill-rule:nonzero;"/><path d="M48.141,193.805l0.802,0.37l19.383,15.36l6.469,0.951l1.07,0.547l23.549,24.164l14.469,4.894l0.943,0.712l3.235,4.691l0.315,1.313l-2.345,17.519l31.539,29.116l19.602,5.15l0.957,-0.343l-0.868,-5.388l0.248,-1.271l3.093,-5.098l2.785,-0.483l9.305,7.558l20.276,1.789l-0.329,3.735l-20.848,-1.839l-1.017,-0.412l-8.082,-6.564l-1.619,2.669l1.007,6.246l-1.22,2.064c-2.007,0.718 -1.949,1.019 -4.079,1.111l-20.616,-5.416l-0.795,-0.436l-32.598,-30.093l-0.587,-1.627l2.378,-17.767l-2.471,-3.583l-14.307,-4.839l-0.742,-0.468l-23.421,-24.033l-6.339,-0.932l-0.892,-0.386l-19.421,-15.39l-10.444,-2.059l0.725,-3.679c3.63,0.716 7.26,1.431 10.89,2.147Z" style="fill:#fff;fill-rule:nonzero;"/><path d="M82.417,147.113l0.406,0.323l15.51,16.335l26.695,12.551l1.062,1.455l1.912,14.684l17.337,14.803l12.473,0.156l1.25,0.499l8.764,8.109l0.558,1.778l-1.314,5.994l4.132,16.387l-0.721,1.979l-4.257,3.071l-1.25,0.349l-7.29,-0.597l-1.219,2.48l28.808,12.394l14.797,1.653l1.213,0.64l6.02,6.996l-2.842,2.446l-5.54,-6.437l-14.341,-1.602l-0.533,-0.141l-30.875,-13.283l-0.942,-2.549l2.651,-5.397l1.836,-1.042l7.874,0.645l2.664,-1.923l-3.93,-15.581l-0.013,-0.86l1.179,-5.376l-7.446,-6.891l-12.431,-0.155l-1.194,-0.449l-18.402,-15.713l-0.642,-1.184l-1.872,-14.381l-26.086,-12.264l-0.562,-0.406l-15.573,-16.401l-23.467,-13.88l1.909,-3.227c7.897,4.67 15.795,9.341 23.692,14.012Z" style="fill:#fff;fill-rule:nonzero;"/><path d="M82.058,93.445l39.421,23.954l0.245,0.177l31.028,26.559l33.156,21.519l0.669,0.759l9.993,20.766l15.416,-9.205l2.599,0.698l21.046,37.706l-4.312,0.032l-19.069,-34.225l-15.518,9.265l-2.651,-0.797l-10.655,-22.14l-32.819,-21.3l-0.199,-0.148l-31.007,-26.541l-39.54,-24.026l-0.441,-0.372l-7.827,-9.002l2.83,-2.46c2.545,2.927 5.09,5.854 7.635,8.781Z" style="fill:#fff;fill-rule:nonzero;"/><path id="outline" d="M186.471,25.761l13.281,11.239l15.511,1.143l17.43,16.887l17.544,16.99l-4.929,8.116l1.924,20.461l6.459,1.944l3.697,13.975l-5.572,3.036l7.467,11.101l7.033,29.549l-5.653,12.623l20.256,43.838l-0.005,0.013l-32.552,10.752l-12.685,-9.225l-4.649,2.37l0.125,14.115l-10.352,11.424l-9.53,3.839l3.867,4.622l-12.958,31.342l4.646,1.267l-0.351,11.489l12.445,12.642l-17.702,24.094l-5.551,22.755l-7.355,2.723l-3.569,8.127l-10.989,1.664l-6.64,15.694l-14.071,0.039l-4.383,15.494l-13.301,4.018l-5.32,6.093l3.862,1.583l-23.412,47.441l-2.052,0.156l-35.691,-51.049l-20.606,-15.227l1.045,-6.416l-8.558,-4.143l-2.827,-15.302l6.414,-1.214l-1.26,-8.627l1.331,-13.119l-17.861,-28.619l3.03,-5.552l-16.487,-23.683l-14.207,-13.153l1.625,-10.933l3.621,-3.555l3.872,-32.756l-3.529,-23.628l17.991,-1.906l8.536,-8.323l-1.855,-13.368l26.273,-34.358l-7.381,-23.622l2.586,-10.025l7.019,-1.544l5.832,-23.661l11.264,-9.361l6.912,-6.492l13.26,6.885l2.709,-9.103l-3.147,-21.151l14.075,-9.209l3.999,6.233l8.623,-3.408l22.019,8.111l3.162,-4.09l-4.2,-3.762l5.124,-13.966l-4.713,-22.876l19.804,-2.424l20.23,22.963Zm-35.54,-17.311l4.108,19.938l-4.616,12.58l4.903,4.393l-6.978,9.024l-23.256,-8.566l-10.16,4.015l-3.622,-5.644l-8.9,5.823l2.917,19.598l-4.241,14.251l-14.93,-7.751l-5.058,4.75l-10.402,8.646l-6.095,24.726l-7.046,1.551l-1.743,6.759l7.64,24.455l-26.502,34.657l1.901,13.695l-10.823,10.554l-15.392,1.631l3.025,20.253l-4.086,34.565l-3.666,3.599l-1.149,7.731l13.053,12.084l18.043,25.92l-3.091,5.664l17.381,27.848l-1.414,13.934l1.712,11.727l-6.278,1.187l1.803,9.763l9.367,4.534l-1.127,6.918l19.259,14.232l33.569,48.013l19.723,-39.965l-4.992,-2.047l9.475,-10.852l12.367,-3.736l4.594,-16.24l14.422,-0.041l6.492,-15.344l11.021,-1.669l3.379,-7.693l6.978,-2.583l5.257,-21.547l16.254,-22.123l-11.329,-11.508l0.309,-10.137l-5.897,-1.609l13.715,-33.175l-5.721,-6.837l13.516,-5.446l8.79,-9.7l-0.132,-14.969l8.765,-4.468l12.989,9.446l26.744,-8.834l-19.212,-41.581l5.829,-13.018l-6.581,-27.649l-9.386,-13.954l6.604,-3.597l-2.408,-9.103l-6.867,-2.067l-2.276,-24.211l4.019,-6.618l-15.394,-14.908l-16.453,-15.941l-15.37,-1.133l-14.422,-12.204l-19.105,-21.686l-13.803,1.69Z" style="fill:#fff;"/></g></svg>